<svg version="1.1" xmlns="http://www.w3.org/2000/svg" viewBox="0 0 1640 1364" width="1640" height="1364"><!-- svg-source:excalidraw --><metadata></metadata><defs><style class="style-fonts">
      </style></defs><rect x="0" y="0" width="1640" height="1364" fill="#ffffff"></rect><g stroke-opacity="0.35" fill-opacity="0.35" stroke-linecap="round" transform="translate(10 102) rotate(0 120 620)"><path d="M32 0 C73.98 -1.2, 106.26 0.01, 208 0 C232.09 -2.71, 240.43 14.22, 240 32 C235.35 414.71, 234.79 798.23, 240 1208 C237.73 1232.64, 231.56 1237.97, 208 1240 C149.46 1239.16, 92.39 1237.96, 32 1240 C7.68 1237.22, 0.36 1231.72, 0 1208 C2.09 920.98, 3.41 637.18, 0 32 C2.2 9.91, 9.94 -0.48, 32 0" stroke="none" stroke-width="0" fill="#dbe4ff"></path><path d="M32 0 C68.06 0.61, 102.08 0.81, 208 0 M32 0 C80.07 -0.09, 127.51 1.13, 208 0 M208 0 C228.04 0.53, 240.88 12.29, 240 32 M208 0 C229.53 0.56, 238.67 12.4, 240 32 M240 32 C238.44 287.08, 238.27 544.06, 240 1208 M240 32 C235.97 489.95, 236.27 947.92, 240 1208 M240 1208 C240.6 1227.73, 229.82 1238.28, 208 1240 M240 1208 C238.31 1229.4, 230.27 1240.81, 208 1240 M208 1240 C171.09 1241.53, 133.11 1241.55, 32 1240 M208 1240 C169.81 1242.38, 131.79 1241.73, 32 1240 M32 1240 C8.78 1239.71, -0.18 1229.86, 0 1208 M32 1240 C12.5 1239.98, 2.16 1229.43, 0 1208 M0 1208 C-3.7 870.6, -2.91 532.81, 0 32 M0 1208 C-0.66 883.19, -0.18 557.6, 0 32 M0 32 C0.44 12.66, 9.12 -1.31, 32 0 M0 32 C-0.62 8.6, 11.68 2.27, 32 0" stroke="#4a9eed" stroke-width="2" fill="none"></path></g><g stroke-opacity="0.35" fill-opacity="0.35" stroke-linecap="round" transform="translate(290 102) rotate(0 260 620)"><path d="M32 0 C133.86 -1.81, 231.12 -1.24, 488 0 C512.09 -2.71, 520.43 14.22, 520 32 C515.35 414.71, 514.79 798.23, 520 1208 C517.73 1232.64, 511.56 1237.97, 488 1240 C335.28 1238.5, 183.26 1237.94, 32 1240 C7.68 1237.22, 0.36 1231.72, 0 1208 C2.09 920.98, 3.41 637.18, 0 32 C2.2 9.91, 9.94 -0.48, 32 0" stroke="none" stroke-width="0" fill="#e5dbff"></path><path d="M32 0 C123.61 0.02, 214.25 0.11, 488 0 M32 0 C156.12 0.48, 279.95 1.06, 488 0 M488 0 C508.04 0.53, 520.88 12.29, 520 32 M488 0 C509.53 0.56, 518.67 12.4, 520 32 M520 32 C518.44 287.08, 518.27 544.06, 520 1208 M520 32 C515.97 489.95, 516.27 947.92, 520 1208 M520 1208 C520.6 1227.73, 509.82 1238.28, 488 1240 M520 1208 C518.31 1229.4, 510.27 1240.81, 488 1240 M488 1240 C390.15 1242.03, 291.79 1242.04, 32 1240 M488 1240 C389.49 1242.34, 291.06 1242.04, 32 1240 M32 1240 C8.78 1239.71, -0.18 1229.86, 0 1208 M32 1240 C12.5 1239.98, 2.16 1229.43, 0 1208 M0 1208 C-3.7 870.6, -2.91 532.81, 0 32 M0 1208 C-0.66 883.19, -0.18 557.6, 0 32 M0 32 C0.44 12.66, 9.12 -1.31, 32 0 M0 32 C-0.62 8.6, 11.68 2.27, 32 0" stroke="#8b5cf6" stroke-width="2" fill="none"></path></g><g stroke-opacity="0.35" fill-opacity="0.35" stroke-linecap="round" transform="translate(850 102) rotate(0 390 620)"><path d="M32 0 C190.81 -2.51, 345.75 -2.03, 748 0 C772.09 -2.71, 780.43 14.22, 780 32 C775.35 414.71, 774.79 798.23, 780 1208 C777.73 1232.64, 771.56 1237.97, 748 1240 C508.04 1237.87, 268.66 1237.39, 32 1240 C7.68 1237.22, 0.36 1231.72, 0 1208 C2.09 920.98, 3.41 637.18, 0 32 C2.2 9.91, 9.94 -0.48, 32 0" stroke="none" stroke-width="0" fill="#d3f9d8"></path><path d="M32 0 C175.55 -0.19, 318.28 -0.12, 748 0 M32 0 C226.83 0.82, 421.4 1.31, 748 0 M748 0 C768.04 0.53, 780.88 12.29, 780 32 M748 0 C769.53 0.56, 778.67 12.4, 780 32 M780 32 C778.44 287.08, 778.27 544.06, 780 1208 M780 32 C775.97 489.95, 776.27 947.92, 780 1208 M780 1208 C780.6 1227.73, 769.82 1238.28, 748 1240 M780 1208 C778.31 1229.4, 770.27 1240.81, 748 1240 M748 1240 C594 1242.75, 439.57 1242.76, 32 1240 M748 1240 C593.39 1242.93, 438.85 1242.68, 32 1240 M32 1240 C8.78 1239.71, -0.18 1229.86, 0 1208 M32 1240 C12.5 1239.98, 2.16 1229.43, 0 1208 M0 1208 C-3.7 870.6, -2.91 532.81, 0 32 M0 1208 C-0.66 883.19, -0.18 557.6, 0 32 M0 32 C0.44 12.66, 9.12 -1.31, 32 0 M0 32 C-0.62 8.6, 11.68 2.27, 32 0" stroke="#22c55e" stroke-width="2" fill="none"></path></g><g transform="translate(475 10) rotate(0 360 18)"><text x="360" y="24.668" font-family="Excalifont, Xiaolai, Segoe UI Emoji" font-size="28px" fill="#0f172a" text-anchor="middle" style="white-space: pre;" direction="ltr" dominant-baseline="alphabetic">APEX Workflow</text></g><g transform="translate(360 52) rotate(0 470 11)"><text x="470" y="14.977" font-family="Excalifont, Xiaolai, Segoe UI Emoji" font-size="17px" fill="#475569" text-anchor="middle" style="white-space: pre;" direction="ltr" dominant-baseline="alphabetic">Excalidraw interpretation of the README workflow: AI prepares, humans approve, Azure artifacts flow forward.</text></g><g transform="translate(40 127) rotate(0 90 12)"><text x="90" y="17.619999999999997" font-family="Excalifont, Xiaolai, Segoe UI Emoji" font-size="20px" fill="#1d4ed8" text-anchor="middle" style="white-space: pre;" direction="ltr" dominant-baseline="alphabetic">Human Governance</text></g><g transform="translate(420 127) rotate(0 130 12)"><text x="130" y="17.619999999999997" font-family="Excalifont, Xiaolai, Segoe UI Emoji" font-size="20px" fill="#6d28d9" text-anchor="middle" style="white-space: pre;" direction="ltr" dominant-baseline="alphabetic">Orchestrator</text></g><g transform="translate(1080 127) rotate(0 160 12)"><text x="160" y="17.619999999999997" font-family="Excalifont, Xiaolai, Segoe UI Emoji" font-size="20px" fill="#15803d" text-anchor="middle" style="white-space: pre;" direction="ltr" dominant-baseline="alphabetic">Specialist Agents And Outputs</text></g><g stroke-linecap="round" transform="translate(385 162) rotate(0 165 27)"><path d="M13.5 0 C82.53 -1.74, 144.5 -0.86, 316.5 0 C328.26 -2.71, 330.43 8.06, 330 13.5 C328.18 22.52, 326.78 33.55, 330 40.5 C327.73 52.81, 327.72 51.97, 316.5 54 C215.23 52.62, 115.02 51.75, 13.5 54 C1.52 51.22, 0.36 51.89, 0 40.5 C-2.05 31.52, 1.27 30.58, 0 13.5 C2.2 3.74, 3.77 -0.48, 13.5 0" stroke="none" stroke-width="0" fill="#fff3bf"></path><path d="M13.5 0 C74.73 0.25, 134.47 0.4, 316.5 0 M13.5 0 C96.06 0.3, 178.16 1.19, 316.5 0 M316.5 0 C324.2 0.53, 330.88 6.13, 330 13.5 M316.5 0 C325.7 0.56, 328.67 6.23, 330 13.5 M330 13.5 C331.41 17.62, 330.97 26.48, 330 40.5 M330 13.5 C329.34 23.7, 330.09 33.94, 330 40.5 M330 40.5 C330.6 47.9, 325.98 52.28, 316.5 54 M330 40.5 C328.31 49.56, 326.44 54.81, 316.5 54 M316.5 54 C251.92 56.03, 186.55 56.04, 13.5 54 M316.5 54 C250.96 56.58, 185.54 56.11, 13.5 54 M13.5 54 C2.61 53.71, -0.18 50.03, 0 40.5 M13.5 54 C6.33 53.98, 2.16 49.6, 0 40.5 M0 40.5 C-0.92 32.47, 1.06 23.48, 0 13.5 M0 40.5 C-0.63 33.67, 0.59 24.9, 0 13.5 M0 13.5 C0.44 6.5, 2.95 -1.31, 13.5 0 M0 13.5 C-0.62 2.43, 5.51 2.27, 13.5 0" stroke="#f59e0b" stroke-width="2" fill="none"></path></g><g transform="translate(432 176) rotate(0 118 10)"><text x="118" y="14.096" font-family="Excalifont, Xiaolai, Segoe UI Emoji" font-size="16px" fill="#92400e" text-anchor="middle" style="white-space: pre;" direction="ltr" dominant-baseline="alphabetic">AI prepares. Humans decide.</text></g><g stroke-linecap="round" transform="translate(40 227) rotate(0 90 32)"><path d="M16 0 C51.82 -0.94, 77.94 0.27, 164 0 C177.43 -2.71, 180.43 8.89, 180 16 C178.14 26.65, 176.74 39.3, 180 48 C177.73 61.98, 176.89 61.97, 164 64 C114.85 63.4, 67.17 62.2, 16 64 C2.35 61.22, 0.36 61.06, 0 48 C-2.01 37.8, 1.3 35.64, 0 16 C2.2 4.58, 4.61 -0.48, 16 0" stroke="none" stroke-width="0" fill="#a5d8ff"></path><path d="M16 0 C46.46 0.66, 74.88 0.86, 164 0 M16 0 C56.45 -0.2, 96.28 1.02, 164 0 M164 0 C173.37 0.53, 180.88 6.96, 180 16 M164 0 C174.87 0.56, 178.67 7.06, 180 16 M180 16 C181.39 21.21, 180.95 31.15, 180 48 M180 16 C179.3 28.15, 180.05 40.34, 180 48 M180 48 C180.6 57.07, 175.15 62.28, 164 64 M180 48 C178.31 58.73, 175.6 64.81, 164 64 M164 64 C133.13 65.25, 101.19 65.27, 16 64 M164 64 C131.86 66.12, 99.88 65.47, 16 64 M16 64 C3.45 63.71, -0.18 59.19, 0 48 M16 64 C7.16 63.98, 2.16 58.76, 0 48 M0 48 C-0.95 38.54, 1.03 28.12, 0 16 M0 48 C-0.63 39.79, 0.59 29.64, 0 16 M0 16 C0.44 7.33, 3.78 -1.31, 16 0 M0 16 C-0.62 3.26, 6.35 2.27, 16 0" stroke="#4a9eed" stroke-width="2" fill="none"></path></g><g transform="translate(71 244) rotate(0 59 18)"><text x="59" y="14.096" font-family="Excalifont, Xiaolai, Segoe UI Emoji" font-size="16px" fill="#0f172a" text-anchor="middle" style="white-space: pre;" direction="ltr" dominant-baseline="alphabetic">Describe intent</text></g><g stroke-linecap="round" transform="translate(40 395) rotate(0 90 27)"><path d="M13.5 0 C50.42 -0.98, 77.64 0.23, 166.5 0 C178.26 -2.71, 180.43 8.06, 180 13.5 C178.18 22.52, 176.78 33.55, 180 40.5 C177.73 52.81, 177.72 51.97, 166.5 54 C115.68 53.35, 66.32 52.15, 13.5 54 C1.52 51.22, 0.36 51.89, 0 40.5 C-2.05 31.52, 1.27 30.58, 0 13.5 C2.2 3.74, 3.77 -0.48, 13.5 0" stroke="none" stroke-width="0" fill="#ffd8a8"></path><path d="M13.5 0 C44.96 0.65, 74.38 0.85, 166.5 0 M13.5 0 C55.31 -0.18, 96.5 1.04, 166.5 0 M166.5 0 C174.2 0.53, 180.88 6.13, 180 13.5 M166.5 0 C175.7 0.56, 178.67 6.23, 180 13.5 M180 13.5 C181.41 17.62, 180.97 26.48, 180 40.5 M180 13.5 C179.34 23.7, 180.09 33.94, 180 40.5 M180 40.5 C180.6 47.9, 175.98 52.28, 166.5 54 M180 40.5 C178.31 49.56, 176.44 54.81, 166.5 54 M166.5 54 C134.55 55.3, 101.53 55.32, 13.5 54 M166.5 54 C133.28 56.16, 100.22 55.52, 13.5 54 M13.5 54 C2.61 53.71, -0.18 50.03, 0 40.5 M13.5 54 C6.33 53.98, 2.16 49.6, 0 40.5 M0 40.5 C-0.92 32.47, 1.06 23.48, 0 13.5 M0 40.5 C-0.63 33.67, 0.59 24.9, 0 13.5 M0 13.5 C0.44 6.5, 2.95 -1.31, 13.5 0 M0 13.5 C-0.62 2.43, 5.51 2.27, 13.5 0" stroke="#f59e0b" stroke-width="2" fill="none"></path></g><g transform="translate(72 411) rotate(0 58 10)"><text x="58" y="12.334" font-family="Excalifont, Xiaolai, Segoe UI Emoji" font-size="14px" fill="#92400e" text-anchor="middle" style="white-space: pre;" direction="ltr" dominant-baseline="alphabetic">Approve requirements</text></g><g stroke-linecap="round" transform="translate(40 580) rotate(0 90 27)"><path d="M13.5 0 C50.42 -0.98, 77.64 0.23, 166.5 0 C178.26 -2.71, 180.43 8.06, 180 13.5 C178.18 22.52, 176.78 33.55, 180 40.5 C177.73 52.81, 177.72 51.97, 166.5 54 C115.68 53.35, 66.32 52.15, 13.5 54 C1.52 51.22, 0.36 51.89, 0 40.5 C-2.05 31.52, 1.27 30.58, 0 13.5 C2.2 3.74, 3.77 -0.48, 13.5 0" stroke="none" stroke-width="0" fill="#ffd8a8"></path><path d="M13.5 0 C44.96 0.65, 74.38 0.85, 166.5 0 M13.5 0 C55.31 -0.18, 96.5 1.04, 166.5 0 M166.5 0 C174.2 0.53, 180.88 6.13, 180 13.5 M166.5 0 C175.7 0.56, 178.67 6.23, 180 13.5 M180 13.5 C181.41 17.62, 180.97 26.48, 180 40.5 M180 13.5 C179.34 23.7, 180.09 33.94, 180 40.5 M180 40.5 C180.6 47.9, 175.98 52.28, 166.5 54 M180 40.5 C178.31 49.56, 176.44 54.81, 166.5 54 M166.5 54 C134.55 55.3, 101.53 55.32, 13.5 54 M166.5 54 C133.28 56.16, 100.22 55.52, 13.5 54 M13.5 54 C2.61 53.71, -0.18 50.03, 0 40.5 M13.5 54 C6.33 53.98, 2.16 49.6, 0 40.5 M0 40.5 C-0.92 32.47, 1.06 23.48, 0 13.5 M0 40.5 C-0.63 33.67, 0.59 24.9, 0 13.5 M0 13.5 C0.44 6.5, 2.95 -1.31, 13.5 0 M0 13.5 C-0.62 2.43, 5.51 2.27, 13.5 0" stroke="#f59e0b" stroke-width="2" fill="none"></path></g><g transform="translate(74 596) rotate(0 56 10)"><text x="56" y="12.334" font-family="Excalifont, Xiaolai, Segoe UI Emoji" font-size="14px" fill="#92400e" text-anchor="middle" style="white-space: pre;" direction="ltr" dominant-baseline="alphabetic">Approve architecture</text></g><g stroke-linecap="round" transform="translate(40 765) rotate(0 90 27)"><path d="M13.5 0 C50.42 -0.98, 77.64 0.23, 166.5 0 C178.26 -2.71, 180.43 8.06, 180 13.5 C178.18 22.52, 176.78 33.55, 180 40.5 C177.73 52.81, 177.72 51.97, 166.5 54 C115.68 53.35, 66.32 52.15, 13.5 54 C1.52 51.22, 0.36 51.89, 0 40.5 C-2.05 31.52, 1.27 30.58, 0 13.5 C2.2 3.74, 3.77 -0.48, 13.5 0" stroke="none" stroke-width="0" fill="#ffd8a8"></path><path d="M13.5 0 C44.96 0.65, 74.38 0.85, 166.5 0 M13.5 0 C55.31 -0.18, 96.5 1.04, 166.5 0 M166.5 0 C174.2 0.53, 180.88 6.13, 180 13.5 M166.5 0 C175.7 0.56, 178.67 6.23, 180 13.5 M180 13.5 C181.41 17.62, 180.97 26.48, 180 40.5 M180 13.5 C179.34 23.7, 180.09 33.94, 180 40.5 M180 40.5 C180.6 47.9, 175.98 52.28, 166.5 54 M180 40.5 C178.31 49.56, 176.44 54.81, 166.5 54 M166.5 54 C134.55 55.3, 101.53 55.32, 13.5 54 M166.5 54 C133.28 56.16, 100.22 55.52, 13.5 54 M13.5 54 C2.61 53.71, -0.18 50.03, 0 40.5 M13.5 54 C6.33 53.98, 2.16 49.6, 0 40.5 M0 40.5 C-0.92 32.47, 1.06 23.48, 0 13.5 M0 40.5 C-0.63 33.67, 0.59 24.9, 0 13.5 M0 13.5 C0.44 6.5, 2.95 -1.31, 13.5 0 M0 13.5 C-0.62 2.43, 5.51 2.27, 13.5 0" stroke="#f59e0b" stroke-width="2" fill="none"></path></g><g transform="translate(95 781) rotate(0 35 10)"><text x="35" y="12.334" font-family="Excalifont, Xiaolai, Segoe UI Emoji" font-size="14px" fill="#92400e" text-anchor="middle" style="white-space: pre;" direction="ltr" dominant-baseline="alphabetic">Approve plan</text></g><g stroke-linecap="round" transform="translate(40 980) rotate(0 90 27)"><path d="M13.5 0 C50.42 -0.98, 77.64 0.23, 166.5 0 C178.26 -2.71, 180.43 8.06, 180 13.5 C178.18 22.52, 176.78 33.55, 180 40.5 C177.73 52.81, 177.72 51.97, 166.5 54 C115.68 53.35, 66.32 52.15, 13.5 54 C1.52 51.22, 0.36 51.89, 0 40.5 C-2.05 31.52, 1.27 30.58, 0 13.5 C2.2 3.74, 3.77 -0.48, 13.5 0" stroke="none" stroke-width="0" fill="#ffd8a8"></path><path d="M13.5 0 C44.96 0.65, 74.38 0.85, 166.5 0 M13.5 0 C55.31 -0.18, 96.5 1.04, 166.5 0 M166.5 0 C174.2 0.53, 180.88 6.13, 180 13.5 M166.5 0 C175.7 0.56, 178.67 6.23, 180 13.5 M180 13.5 C181.41 17.62, 180.97 26.48, 180 40.5 M180 13.5 C179.34 23.7, 180.09 33.94, 180 40.5 M180 40.5 C180.6 47.9, 175.98 52.28, 166.5 54 M180 40.5 C178.31 49.56, 176.44 54.81, 166.5 54 M166.5 54 C134.55 55.3, 101.53 55.32, 13.5 54 M166.5 54 C133.28 56.16, 100.22 55.52, 13.5 54 M13.5 54 C2.61 53.71, -0.18 50.03, 0 40.5 M13.5 54 C6.33 53.98, 2.16 49.6, 0 40.5 M0 40.5 C-0.92 32.47, 1.06 23.48, 0 13.5 M0 40.5 C-0.63 33.67, 0.59 24.9, 0 13.5 M0 13.5 C0.44 6.5, 2.95 -1.31, 13.5 0 M0 13.5 C-0.62 2.43, 5.51 2.27, 13.5 0" stroke="#f59e0b" stroke-width="2" fill="none"></path></g><g transform="translate(71 996) rotate(0 59 10)"><text x="59" y="12.334" font-family="Excalifont, Xiaolai, Segoe UI Emoji" font-size="14px" fill="#92400e" text-anchor="middle" style="white-space: pre;" direction="ltr" dominant-baseline="alphabetic">Approve deployment</text></g><g stroke-linecap="round" transform="translate(40 1170) rotate(0 90 27)"><path d="M13.5 0 C50.42 -0.98, 77.64 0.23, 166.5 0 C178.26 -2.71, 180.43 8.06, 180 13.5 C178.18 22.52, 176.78 33.55, 180 40.5 C177.73 52.81, 177.72 51.97, 166.5 54 C115.68 53.35, 66.32 52.15, 13.5 54 C1.52 51.22, 0.36 51.89, 0 40.5 C-2.05 31.52, 1.27 30.58, 0 13.5 C2.2 3.74, 3.77 -0.48, 13.5 0" stroke="none" stroke-width="0" fill="#ffd8a8"></path><path d="M13.5 0 C44.96 0.65, 74.38 0.85, 166.5 0 M13.5 0 C55.31 -0.18, 96.5 1.04, 166.5 0 M166.5 0 C174.2 0.53, 180.88 6.13, 180 13.5 M166.5 0 C175.7 0.56, 178.67 6.23, 180 13.5 M180 13.5 C181.41 17.62, 180.97 26.48, 180 40.5 M180 13.5 C179.34 23.7, 180.09 33.94, 180 40.5 M180 40.5 C180.6 47.9, 175.98 52.28, 166.5 54 M180 40.5 C178.31 49.56, 176.44 54.81, 166.5 54 M166.5 54 C134.55 55.3, 101.53 55.32, 13.5 54 M166.5 54 C133.28 56.16, 100.22 55.52, 13.5 54 M13.5 54 C2.61 53.71, -0.18 50.03, 0 40.5 M13.5 54 C6.33 53.98, 2.16 49.6, 0 40.5 M0 40.5 C-0.92 32.47, 1.06 23.48, 0 13.5 M0 40.5 C-0.63 33.67, 0.59 24.9, 0 13.5 M0 13.5 C0.44 6.5, 2.95 -1.31, 13.5 0 M0 13.5 C-0.62 2.43, 5.51 2.27, 13.5 0" stroke="#f59e0b" stroke-width="2" fill="none"></path></g><g transform="translate(80 1186) rotate(0 50 10)"><text x="50" y="12.334" font-family="Excalifont, Xiaolai, Segoe UI Emoji" font-size="14px" fill="#92400e" text-anchor="middle" style="white-space: pre;" direction="ltr" dominant-baseline="alphabetic">Verify deployment</text></g><g stroke-linecap="round" transform="translate(340 214) rotate(0 210 45)"><path d="M22.5 0 C106.98 -1.87, 185.55 -1.13, 397.5 0 C415.26 -2.71, 420.43 11.06, 420 22.5 C418.03 37.38, 416.63 54.26, 420 67.5 C417.73 85.81, 414.72 87.97, 397.5 90 C272.02 88.49, 147.43 87.76, 22.5 90 C4.52 87.22, 0.36 84.89, 0 67.5 C-1.93 54.14, 1.38 48.82, 0 22.5 C2.2 6.74, 6.77 -0.48, 22.5 0" stroke="none" stroke-width="0" fill="#d0bfff"></path><path d="M22.5 0 C98.02 0.12, 172.31 0.25, 397.5 0 M22.5 0 C124.62 0.43, 226.36 1.17, 397.5 0 M397.5 0 C411.2 0.53, 420.88 9.13, 420 22.5 M397.5 0 C412.7 0.56, 418.67 9.23, 420 22.5 M420 22.5 C421.33 30.54, 420.89 43.31, 420 67.5 M420 22.5 C419.2 39.71, 419.95 56.97, 420 67.5 M420 67.5 C420.6 80.9, 412.98 88.28, 397.5 90 M420 67.5 C418.31 82.56, 413.44 90.81, 397.5 90 M397.5 90 C317.26 92.13, 236.37 92.14, 22.5 90 M397.5 90 C316.44 92.56, 235.49 92.16, 22.5 90 M22.5 90 C5.61 89.71, -0.18 83.03, 0 67.5 M22.5 90 C9.33 89.98, 2.16 82.6, 0 67.5 M0 67.5 C-1.05 54.31, 0.93 40.16, 0 22.5 M0 67.5 C-0.64 55.7, 0.57 41.95, 0 22.5 M0 22.5 C0.44 9.5, 5.95 -1.31, 22.5 0 M0 22.5 C-0.62 5.43, 8.51 2.27, 22.5 0" stroke="#8b5cf6" stroke-width="2" fill="none"></path></g><g transform="translate(420 239) rotate(0 130 18)"><text x="130" y="15.858" font-family="Excalifont, Xiaolai, Segoe UI Emoji" font-size="18px" fill="#2e1065" text-anchor="middle" style="white-space: pre;" direction="ltr" dominant-baseline="alphabetic">1. Capture intent</text><text x="130" y="38.358000000000004" font-family="Excalifont, Xiaolai, Segoe UI Emoji" font-size="18px" fill="#2e1065" text-anchor="middle" style="white-space: pre;" direction="ltr" dominant-baseline="alphabetic">and structure requirements</text></g><g stroke-linecap="round" transform="translate(340 399) rotate(0 210 45)"><path d="M22.5 0 C106.98 -1.87, 185.55 -1.13, 397.5 0 C415.26 -2.71, 420.43 11.06, 420 22.5 C418.03 37.38, 416.63 54.26, 420 67.5 C417.73 85.81, 414.72 87.97, 397.5 90 C272.02 88.49, 147.43 87.76, 22.5 90 C4.52 87.22, 0.36 84.89, 0 67.5 C-1.93 54.14, 1.38 48.82, 0 22.5 C2.2 6.74, 6.77 -0.48, 22.5 0" stroke="none" stroke-width="0" fill="#d0bfff"></path><path d="M22.5 0 C98.02 0.12, 172.31 0.25, 397.5 0 M22.5 0 C124.62 0.43, 226.36 1.17, 397.5 0 M397.5 0 C411.2 0.53, 420.88 9.13, 420 22.5 M397.5 0 C412.7 0.56, 418.67 9.23, 420 22.5 M420 22.5 C421.33 30.54, 420.89 43.31, 420 67.5 M420 22.5 C419.2 39.71, 419.95 56.97, 420 67.5 M420 67.5 C420.6 80.9, 412.98 88.28, 397.5 90 M420 67.5 C418.31 82.56, 413.44 90.81, 397.5 90 M397.5 90 C317.26 92.13, 236.37 92.14, 22.5 90 M397.5 90 C316.44 92.56, 235.49 92.16, 22.5 90 M22.5 90 C5.61 89.71, -0.18 83.03, 0 67.5 M22.5 90 C9.33 89.98, 2.16 82.6, 0 67.5 M0 67.5 C-1.05 54.31, 0.93 40.16, 0 22.5 M0 67.5 C-0.64 55.7, 0.57 41.95, 0 22.5 M0 22.5 C0.44 9.5, 5.95 -1.31, 22.5 0 M0 22.5 C-0.62 5.43, 8.51 2.27, 22.5 0" stroke="#8b5cf6" stroke-width="2" fill="none"></path></g><g transform="translate(428 424) rotate(0 122 18)"><text x="122" y="15.858" font-family="Excalifont, Xiaolai, Segoe UI Emoji" font-size="18px" fill="#2e1065" text-anchor="middle" style="white-space: pre;" direction="ltr" dominant-baseline="alphabetic">2. Assess architecture</text><text x="122" y="38.358000000000004" font-family="Excalifont, Xiaolai, Segoe UI Emoji" font-size="18px" fill="#2e1065" text-anchor="middle" style="white-space: pre;" direction="ltr" dominant-baseline="alphabetic">and cost posture</text></g><g stroke-linecap="round" transform="translate(340 584) rotate(0 210 45)"><path d="M22.5 0 C106.98 -1.87, 185.55 -1.13, 397.5 0 C415.26 -2.71, 420.43 11.06, 420 22.5 C418.03 37.38, 416.63 54.26, 420 67.5 C417.73 85.81, 414.72 87.97, 397.5 90 C272.02 88.49, 147.43 87.76, 22.5 90 C4.52 87.22, 0.36 84.89, 0 67.5 C-1.93 54.14, 1.38 48.82, 0 22.5 C2.2 6.74, 6.77 -0.48, 22.5 0" stroke="none" stroke-width="0" fill="#d0bfff"></path><path d="M22.5 0 C98.02 0.12, 172.31 0.25, 397.5 0 M22.5 0 C124.62 0.43, 226.36 1.17, 397.5 0 M397.5 0 C411.2 0.53, 420.88 9.13, 420 22.5 M397.5 0 C412.7 0.56, 418.67 9.23, 420 22.5 M420 22.5 C421.33 30.54, 420.89 43.31, 420 67.5 M420 22.5 C419.2 39.71, 419.95 56.97, 420 67.5 M420 67.5 C420.6 80.9, 412.98 88.28, 397.5 90 M420 67.5 C418.31 82.56, 413.44 90.81, 397.5 90 M397.5 90 C317.26 92.13, 236.37 92.14, 22.5 90 M397.5 90 C316.44 92.56, 235.49 92.16, 22.5 90 M22.5 90 C5.61 89.71, -0.18 83.03, 0 67.5 M22.5 90 C9.33 89.98, 2.16 82.6, 0 67.5 M0 67.5 C-1.05 54.31, 0.93 40.16, 0 22.5 M0 67.5 C-0.64 55.7, 0.57 41.95, 0 22.5 M0 22.5 C0.44 9.5, 5.95 -1.31, 22.5 0 M0 22.5 C-0.62 5.43, 8.51 2.27, 22.5 0" stroke="#8b5cf6" stroke-width="2" fill="none"></path></g><g transform="translate(425 609) rotate(0 125 18)"><text x="125" y="15.858" font-family="Excalifont, Xiaolai, Segoe UI Emoji" font-size="18px" fill="#2e1065" text-anchor="middle" style="white-space: pre;" direction="ltr" dominant-baseline="alphabetic">3. Plan IaC approach</text><text x="125" y="38.358000000000004" font-family="Excalifont, Xiaolai, Segoe UI Emoji" font-size="18px" fill="#2e1065" text-anchor="middle" style="white-space: pre;" direction="ltr" dominant-baseline="alphabetic">and governance fit</text></g><g stroke-linecap="round" transform="translate(312 724) rotate(0 655 94)"><path d="M32 0 C281.55 -0.62, 530.28 -0.54, 1278 0 M1278 0 C1298.77 -1.73, 1309.21 11.06, 1310 32 M1310 32 C1308.42 59.98, 1310.6 88.52, 1310 156 M1310 156 C1310.17 177.82, 1298.17 189.51, 1278 188 M1278 188 C1007.61 188.44, 736.42 189.63, 32 188 M32 188 C12.46 186.36, 1.39 176.46, 0 156 M0 156 C0.21 121.12, 0.09 87.72, 0 32 M0 32 C-1.47 10.72, 11.48 0.7, 32 0" stroke="#4a9eed" stroke-width="2.5" fill="none" stroke-dasharray="8 10"></path></g><g transform="translate(335 735) rotate(0 59 10)"><text x="0" y="14.096" font-family="Excalifont, Xiaolai, Segoe UI Emoji" font-size="16px" fill="#1d4ed8" text-anchor="start" style="white-space: pre;" direction="ltr" dominant-baseline="alphabetic">Validation loop</text></g><g stroke-linecap="round" transform="translate(340 769) rotate(0 210 45)"><path d="M22.5 0 C106.98 -1.87, 185.55 -1.13, 397.5 0 C415.26 -2.71, 420.43 11.06, 420 22.5 C418.03 37.38, 416.63 54.26, 420 67.5 C417.73 85.81, 414.72 87.97, 397.5 90 C272.02 88.49, 147.43 87.76, 22.5 90 C4.52 87.22, 0.36 84.89, 0 67.5 C-1.93 54.14, 1.38 48.82, 0 22.5 C2.2 6.74, 6.77 -0.48, 22.5 0" stroke="none" stroke-width="0" fill="#d0bfff"></path><path d="M22.5 0 C98.02 0.12, 172.31 0.25, 397.5 0 M22.5 0 C124.62 0.43, 226.36 1.17, 397.5 0 M397.5 0 C411.2 0.53, 420.88 9.13, 420 22.5 M397.5 0 C412.7 0.56, 418.67 9.23, 420 22.5 M420 22.5 C421.33 30.54, 420.89 43.31, 420 67.5 M420 22.5 C419.2 39.71, 419.95 56.97, 420 67.5 M420 67.5 C420.6 80.9, 412.98 88.28, 397.5 90 M420 67.5 C418.31 82.56, 413.44 90.81, 397.5 90 M397.5 90 C317.26 92.13, 236.37 92.14, 22.5 90 M397.5 90 C316.44 92.56, 235.49 92.16, 22.5 90 M22.5 90 C5.61 89.71, -0.18 83.03, 0 67.5 M22.5 90 C9.33 89.98, 2.16 82.6, 0 67.5 M0 67.5 C-1.05 54.31, 0.93 40.16, 0 22.5 M0 67.5 C-0.64 55.7, 0.57 41.95, 0 22.5 M0 22.5 C0.44 9.5, 5.95 -1.31, 22.5 0 M0 22.5 C-0.62 5.43, 8.51 2.27, 22.5 0" stroke="#8b5cf6" stroke-width="2" fill="none"></path></g><g transform="translate(414 794) rotate(0 136 18)"><text x="136" y="15.858" font-family="Excalifont, Xiaolai, Segoe UI Emoji" font-size="18px" fill="#2e1065" text-anchor="middle" style="white-space: pre;" direction="ltr" dominant-baseline="alphabetic">4. Generate IaC templates</text><text x="136" y="38.358000000000004" font-family="Excalifont, Xiaolai, Segoe UI Emoji" font-size="18px" fill="#2e1065" text-anchor="middle" style="white-space: pre;" direction="ltr" dominant-baseline="alphabetic">and resolve validation</text></g><g stroke-linecap="round" transform="translate(340 999) rotate(0 210 45)"><path d="M22.5 0 C106.98 -1.87, 185.55 -1.13, 397.5 0 C415.26 -2.71, 420.43 11.06, 420 22.5 C418.03 37.38, 416.63 54.26, 420 67.5 C417.73 85.81, 414.72 87.97, 397.5 90 C272.02 88.49, 147.43 87.76, 22.5 90 C4.52 87.22, 0.36 84.89, 0 67.5 C-1.93 54.14, 1.38 48.82, 0 22.5 C2.2 6.74, 6.77 -0.48, 22.5 0" stroke="none" stroke-width="0" fill="#d0bfff"></path><path d="M22.5 0 C98.02 0.12, 172.31 0.25, 397.5 0 M22.5 0 C124.62 0.43, 226.36 1.17, 397.5 0 M397.5 0 C411.2 0.53, 420.88 9.13, 420 22.5 M397.5 0 C412.7 0.56, 418.67 9.23, 420 22.5 M420 22.5 C421.33 30.54, 420.89 43.31, 420 67.5 M420 22.5 C419.2 39.71, 419.95 56.97, 420 67.5 M420 67.5 C420.6 80.9, 412.98 88.28, 397.5 90 M420 67.5 C418.31 82.56, 413.44 90.81, 397.5 90 M397.5 90 C317.26 92.13, 236.37 92.14, 22.5 90 M397.5 90 C316.44 92.56, 235.49 92.16, 22.5 90 M22.5 90 C5.61 89.71, -0.18 83.03, 0 67.5 M22.5 90 C9.33 89.98, 2.16 82.6, 0 67.5 M0 67.5 C-1.05 54.31, 0.93 40.16, 0 22.5 M0 67.5 C-0.64 55.7, 0.57 41.95, 0 22.5 M0 22.5 C0.44 9.5, 5.95 -1.31, 22.5 0 M0 22.5 C-0.62 5.43, 8.51 2.27, 22.5 0" stroke="#8b5cf6" stroke-width="2" fill="none"></path></g><g transform="translate(438 1024) rotate(0 112 18)"><text x="112" y="15.858" font-family="Excalifont, Xiaolai, Segoe UI Emoji" font-size="18px" fill="#2e1065" text-anchor="middle" style="white-space: pre;" direction="ltr" dominant-baseline="alphabetic">5. Execute deployment</text><text x="112" y="38.358000000000004" font-family="Excalifont, Xiaolai, Segoe UI Emoji" font-size="18px" fill="#2e1065" text-anchor="middle" style="white-space: pre;" direction="ltr" dominant-baseline="alphabetic">and present summary</text></g><g stroke-linecap="round" transform="translate(340 1189) rotate(0 210 45)"><path d="M22.5 0 C106.98 -1.87, 185.55 -1.13, 397.5 0 C415.26 -2.71, 420.43 11.06, 420 22.5 C418.03 37.38, 416.63 54.26, 420 67.5 C417.73 85.81, 414.72 87.97, 397.5 90 C272.02 88.49, 147.43 87.76, 22.5 90 C4.52 87.22, 0.36 84.89, 0 67.5 C-1.93 54.14, 1.38 48.82, 0 22.5 C2.2 6.74, 6.77 -0.48, 22.5 0" stroke="none" stroke-width="0" fill="#d0bfff"></path><path d="M22.5 0 C98.02 0.12, 172.31 0.25, 397.5 0 M22.5 0 C124.62 0.43, 226.36 1.17, 397.5 0 M397.5 0 C411.2 0.53, 420.88 9.13, 420 22.5 M397.5 0 C412.7 0.56, 418.67 9.23, 420 22.5 M420 22.5 C421.33 30.54, 420.89 43.31, 420 67.5 M420 22.5 C419.2 39.71, 419.95 56.97, 420 67.5 M420 67.5 C420.6 80.9, 412.98 88.28, 397.5 90 M420 67.5 C418.31 82.56, 413.44 90.81, 397.5 90 M397.5 90 C317.26 92.13, 236.37 92.14, 22.5 90 M397.5 90 C316.44 92.56, 235.49 92.16, 22.5 90 M22.5 90 C5.61 89.71, -0.18 83.03, 0 67.5 M22.5 90 C9.33 89.98, 2.16 82.6, 0 67.5 M0 67.5 C-1.05 54.31, 0.93 40.16, 0 22.5 M0 67.5 C-0.64 55.7, 0.57 41.95, 0 22.5 M0 22.5 C0.44 9.5, 5.95 -1.31, 22.5 0 M0 22.5 C-0.62 5.43, 8.51 2.27, 22.5 0" stroke="#8b5cf6" stroke-width="2" fill="none"></path></g><g transform="translate(420 1214) rotate(0 130 18)"><text x="130" y="15.858" font-family="Excalifont, Xiaolai, Segoe UI Emoji" font-size="18px" fill="#2e1065" text-anchor="middle" style="white-space: pre;" direction="ltr" dominant-baseline="alphabetic">6. Generate as-built docs</text><text x="130" y="38.358000000000004" font-family="Excalifont, Xiaolai, Segoe UI Emoji" font-size="18px" fill="#2e1065" text-anchor="middle" style="white-space: pre;" direction="ltr" dominant-baseline="alphabetic">and hand off operations</text></g><g stroke-linecap="round"><g transform="translate(550 304) rotate(0 0 47.5)"><path d="M0 0 C0 19, 0 38, 0 95 M0 0 C0 25.84, 0 51.68, 0 95" stroke="#6d28d9" stroke-width="2" fill="none"></path></g><g transform="translate(550 304) rotate(0 0 47.5)"><path d="M-8.55 71.51 C-6.84 76.21, -5.13 80.9, 0 95 M-8.55 71.51 C-6.22 77.9, -3.9 84.29, 0 95" stroke="#6d28d9" stroke-width="2" fill="none"></path></g><g transform="translate(550 304) rotate(0 0 47.5)"><path d="M8.55 71.51 C6.84 76.21, 5.13 80.9, 0 95 M8.55 71.51 C6.22 77.9, 3.9 84.29, 0 95" stroke="#6d28d9" stroke-width="2" fill="none"></path></g></g><mask></mask><g stroke-linecap="round"><g transform="translate(550 489) rotate(0 0 47.5)"><path d="M0 0 C0 19, 0 38, 0 95 M0 0 C0 25.84, 0 51.68, 0 95" stroke="#6d28d9" stroke-width="2" fill="none"></path></g><g transform="translate(550 489) rotate(0 0 47.5)"><path d="M-8.55 71.51 C-6.84 76.21, -5.13 80.9, 0 95 M-8.55 71.51 C-6.22 77.9, -3.9 84.29, 0 95" stroke="#6d28d9" stroke-width="2" fill="none"></path></g><g transform="translate(550 489) rotate(0 0 47.5)"><path d="M8.55 71.51 C6.84 76.21, 5.13 80.9, 0 95 M8.55 71.51 C6.22 77.9, 3.9 84.29, 0 95" stroke="#6d28d9" stroke-width="2" fill="none"></path></g></g><mask></mask><g stroke-linecap="round"><g transform="translate(550 674) rotate(0 0 47.5)"><path d="M0 0 C0 19, 0 38, 0 95 M0 0 C0 25.84, 0 51.68, 0 95" stroke="#6d28d9" stroke-width="2" fill="none"></path></g><g transform="translate(550 674) rotate(0 0 47.5)"><path d="M-8.55 71.51 C-6.84 76.21, -5.13 80.9, 0 95 M-8.55 71.51 C-6.22 77.9, -3.9 84.29, 0 95" stroke="#6d28d9" stroke-width="2" fill="none"></path></g><g transform="translate(550 674) rotate(0 0 47.5)"><path d="M8.55 71.51 C6.84 76.21, 5.13 80.9, 0 95 M8.55 71.51 C6.22 77.9, 3.9 84.29, 0 95" stroke="#6d28d9" stroke-width="2" fill="none"></path></g></g><mask></mask><g stroke-linecap="round"><g transform="translate(550 859) rotate(0 0 70)"><path d="M0 0 C0 28, 0 56, 0 140 M0 0 C0 38.08, 0 76.16, 0 140" stroke="#6d28d9" stroke-width="2" fill="none"></path></g><g transform="translate(550 859) rotate(0 0 70)"><path d="M-8.55 116.51 C-6.84 121.21, -5.13 125.9, 0 140 M-8.55 116.51 C-6.22 122.9, -3.9 129.29, 0 140" stroke="#6d28d9" stroke-width="2" fill="none"></path></g><g transform="translate(550 859) rotate(0 0 70)"><path d="M8.55 116.51 C6.84 121.21, 5.13 125.9, 0 140 M8.55 116.51 C6.22 122.9, 3.9 129.29, 0 140" stroke="#6d28d9" stroke-width="2" fill="none"></path></g></g><mask></mask><g stroke-linecap="round"><g transform="translate(550 1089) rotate(0 0 50)"><path d="M0 0 C0 20, 0 40, 0 100 M0 0 C0 27.2, 0 54.4, 0 100" stroke="#6d28d9" stroke-width="2" fill="none"></path></g><g transform="translate(550 1089) rotate(0 0 50)"><path d="M-8.55 76.51 C-6.84 81.21, -5.13 85.9, 0 100 M-8.55 76.51 C-6.22 82.9, -3.9 89.29, 0 100" stroke="#6d28d9" stroke-width="2" fill="none"></path></g><g transform="translate(550 1089) rotate(0 0 50)"><path d="M8.55 76.51 C6.84 81.21, 5.13 85.9, 0 100 M8.55 76.51 C6.22 82.9, 3.9 89.29, 0 100" stroke="#6d28d9" stroke-width="2" fill="none"></path></g></g><mask></mask><g stroke-linecap="round"><g transform="translate(220 259) rotate(0 60 0)"><path d="M0 0 C24 0, 48 0, 120 0 M0 0 C32.64 0, 65.28 0, 120 0" stroke="#1d4ed8" stroke-width="2" fill="none"></path></g><g transform="translate(220 259) rotate(0 60 0)"><path d="M96.51 8.55 C101.21 6.84, 105.9 5.13, 120 0 M96.51 8.55 C102.9 6.22, 109.29 3.9, 120 0" stroke="#1d4ed8" stroke-width="2" fill="none"></path></g><g transform="translate(220 259) rotate(0 60 0)"><path d="M96.51 -8.55 C101.21 -6.84, 105.9 -5.13, 120 0 M96.51 -8.55 C102.9 -6.22, 109.29 -3.9, 120 0" stroke="#1d4ed8" stroke-width="2" fill="none"></path></g></g><mask></mask><g stroke-linecap="round"><g transform="translate(220 422) rotate(0 60 0)"><path d="M0 0 C24 0, 48 0, 120 0 M0 0 C32.64 0, 65.28 0, 120 0" stroke="#f59e0b" stroke-width="2" fill="none"></path></g><g transform="translate(220 422) rotate(0 60 0)"><path d="M96.51 8.55 C101.21 6.84, 105.9 5.13, 120 0 M96.51 8.55 C102.9 6.22, 109.29 3.9, 120 0" stroke="#f59e0b" stroke-width="2" fill="none"></path></g><g transform="translate(220 422) rotate(0 60 0)"><path d="M96.51 -8.55 C101.21 -6.84, 105.9 -5.13, 120 0 M96.51 -8.55 C102.9 -6.22, 109.29 -3.9, 120 0" stroke="#f59e0b" stroke-width="2" fill="none"></path></g></g><mask></mask><g stroke-linecap="round"><g transform="translate(220 607) rotate(0 60 0)"><path d="M0 0 C24 0, 48 0, 120 0 M0 0 C32.64 0, 65.28 0, 120 0" stroke="#f59e0b" stroke-width="2" fill="none"></path></g><g transform="translate(220 607) rotate(0 60 0)"><path d="M96.51 8.55 C101.21 6.84, 105.9 5.13, 120 0 M96.51 8.55 C102.9 6.22, 109.29 3.9, 120 0" stroke="#f59e0b" stroke-width="2" fill="none"></path></g><g transform="translate(220 607) rotate(0 60 0)"><path d="M96.51 -8.55 C101.21 -6.84, 105.9 -5.13, 120 0 M96.51 -8.55 C102.9 -6.22, 109.29 -3.9, 120 0" stroke="#f59e0b" stroke-width="2" fill="none"></path></g></g><mask></mask><g stroke-linecap="round"><g transform="translate(220 792) rotate(0 60 0)"><path d="M0 0 C24 0, 48 0, 120 0 M0 0 C32.64 0, 65.28 0, 120 0" stroke="#f59e0b" stroke-width="2" fill="none"></path></g><g transform="translate(220 792) rotate(0 60 0)"><path d="M96.51 8.55 C101.21 6.84, 105.9 5.13, 120 0 M96.51 8.55 C102.9 6.22, 109.29 3.9, 120 0" stroke="#f59e0b" stroke-width="2" fill="none"></path></g><g transform="translate(220 792) rotate(0 60 0)"><path d="M96.51 -8.55 C101.21 -6.84, 105.9 -5.13, 120 0 M96.51 -8.55 C102.9 -6.22, 109.29 -3.9, 120 0" stroke="#f59e0b" stroke-width="2" fill="none"></path></g></g><mask></mask><g stroke-linecap="round"><g transform="translate(220 1007) rotate(0 60 0)"><path d="M0 0 C24 0, 48 0, 120 0 M0 0 C32.64 0, 65.28 0, 120 0" stroke="#f59e0b" stroke-width="2" fill="none"></path></g><g transform="translate(220 1007) rotate(0 60 0)"><path d="M96.51 8.55 C101.21 6.84, 105.9 5.13, 120 0 M96.51 8.55 C102.9 6.22, 109.29 3.9, 120 0" stroke="#f59e0b" stroke-width="2" fill="none"></path></g><g transform="translate(220 1007) rotate(0 60 0)"><path d="M96.51 -8.55 C101.21 -6.84, 105.9 -5.13, 120 0 M96.51 -8.55 C102.9 -6.22, 109.29 -3.9, 120 0" stroke="#f59e0b" stroke-width="2" fill="none"></path></g></g><mask></mask><g stroke-linecap="round"><g transform="translate(220 1197) rotate(0 60 0)"><path d="M0 0 C24 0, 48 0, 120 0 M0 0 C32.64 0, 65.28 0, 120 0" stroke="#f59e0b" stroke-width="2" fill="none"></path></g><g transform="translate(220 1197) rotate(0 60 0)"><path d="M96.51 8.55 C101.21 6.84, 105.9 5.13, 120 0 M96.51 8.55 C102.9 6.22, 109.29 3.9, 120 0" stroke="#f59e0b" stroke-width="2" fill="none"></path></g><g transform="translate(220 1197) rotate(0 60 0)"><path d="M96.51 -8.55 C101.21 -6.84, 105.9 -5.13, 120 0 M96.51 -8.55 C102.9 -6.22, 109.29 -3.9, 120 0" stroke="#f59e0b" stroke-width="2" fill="none"></path></g></g><mask></mask><g stroke-linecap="round" transform="translate(910 194) rotate(0 330 65)"><path d="M32 0 C164.41 -2.06, 292.95 -1.58, 628 0 C652.09 -2.71, 660.43 14.22, 660 32 C657.85 53.71, 656.45 77.43, 660 98 C657.73 122.64, 651.56 127.97, 628 130 C428.29 128.27, 229.16 127.79, 32 130 C7.68 127.22, 0.36 121.72, 0 98 C-1.8 79.53, 1.52 69.1, 0 32 C2.2 9.91, 9.94 -0.48, 32 0" stroke="none" stroke-width="0" fill="#c3fae8"></path><path d="M32 0 C151.55 -0.1, 270.28 -0.02, 628 0 M32 0 C194.19 0.63, 356.13 1.12, 628 0 M628 0 C648.04 0.53, 660.88 12.29, 660 32 M628 0 C649.53 0.56, 658.67 12.4, 660 32 M660 32 C661.23 44.61, 660.79 61.94, 660 98 M660 32 C659.02 57.39, 659.77 82.83, 660 98 M660 98 C660.6 117.73, 649.82 128.28, 628 130 M660 98 C658.31 119.4, 650.27 130.81, 628 130 M628 130 C499.88 132.27, 371.33 132.28, 32 130 M628 130 C499.29 132.49, 370.65 132.23, 32 130 M32 130 C8.78 129.71, -0.18 119.86, 0 98 M32 130 C12.5 129.98, 2.16 119.43, 0 98 M0 98 C-1.2 78.79, 0.78 58.61, 0 32 M0 98 C-0.66 80.39, 0.56 60.84, 0 32 M0 32 C0.44 12.66, 9.12 -1.31, 32 0 M0 32 C-0.62 8.6, 11.68 2.27, 32 0" stroke="#22c55e" stroke-width="2" fill="none"></path></g><g transform="translate(945 218) rotate(0 295 36)"><text x="0" y="14.977" font-family="Excalifont, Xiaolai, Segoe UI Emoji" font-size="17px" fill="#14532d" text-anchor="start" style="white-space: pre;" direction="ltr" dominant-baseline="alphabetic">Requirements agent translates intent into 01-requirements.md.</text><text x="0" y="36.227000000000004" font-family="Excalifont, Xiaolai, Segoe UI Emoji" font-size="17px" fill="#14532d" text-anchor="start" style="white-space: pre;" direction="ltr" dominant-baseline="alphabetic">Challenger review returns challenge-findings.json.</text><text x="0" y="57.477000000000004" font-family="Excalifont, Xiaolai, Segoe UI Emoji" font-size="17px" fill="#14532d" text-anchor="start" style="white-space: pre;" direction="ltr" dominant-baseline="alphabetic">Conductor presents both to the user before architecture starts.</text></g><g stroke-linecap="round" transform="translate(910 379) rotate(0 330 65)"><path d="M32 0 C164.41 -2.06, 292.95 -1.58, 628 0 C652.09 -2.71, 660.43 14.22, 660 32 C657.85 53.71, 656.45 77.43, 660 98 C657.73 122.64, 651.56 127.97, 628 130 C428.29 128.27, 229.16 127.79, 32 130 C7.68 127.22, 0.36 121.72, 0 98 C-1.8 79.53, 1.52 69.1, 0 32 C2.2 9.91, 9.94 -0.48, 32 0" stroke="none" stroke-width="0" fill="#c3fae8"></path><path d="M32 0 C151.55 -0.1, 270.28 -0.02, 628 0 M32 0 C194.19 0.63, 356.13 1.12, 628 0 M628 0 C648.04 0.53, 660.88 12.29, 660 32 M628 0 C649.53 0.56, 658.67 12.4, 660 32 M660 32 C661.23 44.61, 660.79 61.94, 660 98 M660 32 C659.02 57.39, 659.77 82.83, 660 98 M660 98 C660.6 117.73, 649.82 128.28, 628 130 M660 98 C658.31 119.4, 650.27 130.81, 628 130 M628 130 C499.88 132.27, 371.33 132.28, 32 130 M628 130 C499.29 132.49, 370.65 132.23, 32 130 M32 130 C8.78 129.71, -0.18 119.86, 0 98 M32 130 C12.5 129.98, 2.16 119.43, 0 98 M0 98 C-1.2 78.79, 0.78 58.61, 0 32 M0 98 C-0.66 80.39, 0.56 60.84, 0 32 M0 32 C0.44 12.66, 9.12 -1.31, 32 0 M0 32 C-0.62 8.6, 11.68 2.27, 32 0" stroke="#22c55e" stroke-width="2" fill="none"></path></g><g transform="translate(945 403) rotate(0 295 36)"><text x="0" y="14.977" font-family="Excalifont, Xiaolai, Segoe UI Emoji" font-size="17px" fill="#14532d" text-anchor="start" style="white-space: pre;" direction="ltr" dominant-baseline="alphabetic">Architect evaluates WAF tradeoffs and cost posture.</text><text x="0" y="36.227000000000004" font-family="Excalifont, Xiaolai, Segoe UI Emoji" font-size="17px" fill="#14532d" text-anchor="start" style="white-space: pre;" direction="ltr" dominant-baseline="alphabetic">The cost-estimate-subagent handles pricing lookups.</text><text x="0" y="57.477000000000004" font-family="Excalifont, Xiaolai, Segoe UI Emoji" font-size="17px" fill="#14532d" text-anchor="start" style="white-space: pre;" direction="ltr" dominant-baseline="alphabetic">Outputs: 02-assessment.md, 03-cost-estimate.md, plus challenge findings.</text></g><g stroke-linecap="round" transform="translate(910 564) rotate(0 330 65)"><path d="M32 0 C164.41 -2.06, 292.95 -1.58, 628 0 C652.09 -2.71, 660.43 14.22, 660 32 C657.85 53.71, 656.45 77.43, 660 98 C657.73 122.64, 651.56 127.97, 628 130 C428.29 128.27, 229.16 127.79, 32 130 C7.68 127.22, 0.36 121.72, 0 98 C-1.8 79.53, 1.52 69.1, 0 32 C2.2 9.91, 9.94 -0.48, 32 0" stroke="none" stroke-width="0" fill="#c3fae8"></path><path d="M32 0 C151.55 -0.1, 270.28 -0.02, 628 0 M32 0 C194.19 0.63, 356.13 1.12, 628 0 M628 0 C648.04 0.53, 660.88 12.29, 660 32 M628 0 C649.53 0.56, 658.67 12.4, 660 32 M660 32 C661.23 44.61, 660.79 61.94, 660 98 M660 32 C659.02 57.39, 659.77 82.83, 660 98 M660 98 C660.6 117.73, 649.82 128.28, 628 130 M660 98 C658.31 119.4, 650.27 130.81, 628 130 M628 130 C499.88 132.27, 371.33 132.28, 32 130 M628 130 C499.29 132.49, 370.65 132.23, 32 130 M32 130 C8.78 129.71, -0.18 119.86, 0 98 M32 130 C12.5 129.98, 2.16 119.43, 0 98 M0 98 C-1.2 78.79, 0.78 58.61, 0 32 M0 98 C-0.66 80.39, 0.56 60.84, 0 32 M0 32 C0.44 12.66, 9.12 -1.31, 32 0 M0 32 C-0.62 8.6, 11.68 2.27, 32 0" stroke="#22c55e" stroke-width="2" fill="none"></path></g><g transform="translate(945 588) rotate(0 295 36)"><text x="0" y="14.977" font-family="Excalifont, Xiaolai, Segoe UI Emoji" font-size="17px" fill="#14532d" text-anchor="start" style="white-space: pre;" direction="ltr" dominant-baseline="alphabetic">The Bicep or Terraform planner creates the implementation plan.</text><text x="0" y="36.227000000000004" font-family="Excalifont, Xiaolai, Segoe UI Emoji" font-size="17px" fill="#14532d" text-anchor="start" style="white-space: pre;" direction="ltr" dominant-baseline="alphabetic">The governance-discovery-subagent pulls Azure Policy constraints.</text><text x="0" y="57.477000000000004" font-family="Excalifont, Xiaolai, Segoe UI Emoji" font-size="17px" fill="#14532d" text-anchor="start" style="white-space: pre;" direction="ltr" dominant-baseline="alphabetic">Outputs: 04-plan.md, governance constraints, and challenge findings.</text></g><g stroke-linecap="round" transform="translate(910 757) rotate(0 330 61)"><path d="M30.5 0 C163.57 -2.07, 292.77 -1.59, 629.5 0 C652.59 -2.71, 660.43 13.72, 660 30.5 C657.89 50.59, 656.49 72.67, 660 91.5 C657.73 115.14, 652.06 119.97, 629.5 122 C428.78 120.26, 228.65 119.78, 30.5 122 C7.18 119.22, 0.36 114.22, 0 91.5 C-1.83 74.25, 1.48 65.04, 0 30.5 C2.2 9.41, 9.44 -0.48, 30.5 0" stroke="none" stroke-width="0" fill="#c3fae8"></path><path d="M30.5 0 C150.65 -0.1, 269.98 -0.02, 629.5 0 M30.5 0 C193.5 0.64, 356.26 1.12, 629.5 0 M629.5 0 C648.54 0.53, 660.88 11.79, 660 30.5 M629.5 0 C650.03 0.56, 658.67 11.9, 660 30.5 M660 30.5 C661.26 42.02, 660.82 58.27, 660 91.5 M660 30.5 C659.06 53.94, 659.81 77.43, 660 91.5 M660 91.5 C660.6 110.23, 650.32 120.28, 629.5 122 M660 91.5 C658.31 111.9, 650.77 122.81, 629.5 122 M629.5 122 C500.73 124.28, 371.54 124.29, 30.5 122 M629.5 122 C500.14 124.5, 370.85 124.25, 30.5 122 M30.5 122 C8.28 121.71, -0.18 112.36, 0 91.5 M30.5 122 C12 121.98, 2.16 111.93, 0 91.5 M0 91.5 C-1.16 73.72, 0.82 54.98, 0 30.5 M0 91.5 C-0.66 75.28, 0.56 57.1, 0 30.5 M0 30.5 C0.44 12.16, 8.62 -1.31, 30.5 0 M0 30.5 C-0.62 8.1, 11.18 2.27, 30.5 0" stroke="#22c55e" stroke-width="2" fill="none"></path></g><g transform="translate(945 780) rotate(0 295 36)"><text x="0" y="14.977" font-family="Excalifont, Xiaolai, Segoe UI Emoji" font-size="17px" fill="#14532d" text-anchor="start" style="white-space: pre;" direction="ltr" dominant-baseline="alphabetic">IaC codegen produces AVM-first templates in infra/bicep/{project}</text><text x="0" y="36.227000000000004" font-family="Excalifont, Xiaolai, Segoe UI Emoji" font-size="17px" fill="#14532d" text-anchor="start" style="white-space: pre;" direction="ltr" dominant-baseline="alphabetic">or infra/terraform/{project}. Validation either passes for approval</text><text x="0" y="57.477000000000004" font-family="Excalifont, Xiaolai, Segoe UI Emoji" font-size="17px" fill="#14532d" text-anchor="start" style="white-space: pre;" direction="ltr" dominant-baseline="alphabetic">or loops back for revision with feedback.</text></g><g stroke-linecap="round" transform="translate(910 979) rotate(0 330 65)"><path d="M32 0 C164.41 -2.06, 292.95 -1.58, 628 0 C652.09 -2.71, 660.43 14.22, 660 32 C657.85 53.71, 656.45 77.43, 660 98 C657.73 122.64, 651.56 127.97, 628 130 C428.29 128.27, 229.16 127.79, 32 130 C7.68 127.22, 0.36 121.72, 0 98 C-1.8 79.53, 1.52 69.1, 0 32 C2.2 9.91, 9.94 -0.48, 32 0" stroke="none" stroke-width="0" fill="#c3fae8"></path><path d="M32 0 C151.55 -0.1, 270.28 -0.02, 628 0 M32 0 C194.19 0.63, 356.13 1.12, 628 0 M628 0 C648.04 0.53, 660.88 12.29, 660 32 M628 0 C649.53 0.56, 658.67 12.4, 660 32 M660 32 C661.23 44.61, 660.79 61.94, 660 98 M660 32 C659.02 57.39, 659.77 82.83, 660 98 M660 98 C660.6 117.73, 649.82 128.28, 628 130 M660 98 C658.31 119.4, 650.27 130.81, 628 130 M628 130 C499.88 132.27, 371.33 132.28, 32 130 M628 130 C499.29 132.49, 370.65 132.23, 32 130 M32 130 C8.78 129.71, -0.18 119.86, 0 98 M32 130 C12.5 129.98, 2.16 119.43, 0 98 M0 98 C-1.2 78.79, 0.78 58.61, 0 32 M0 98 C-0.66 80.39, 0.56 60.84, 0 32 M0 32 C0.44 12.66, 9.12 -1.31, 32 0 M0 32 C-0.62 8.6, 11.68 2.27, 32 0" stroke="#22c55e" stroke-width="2" fill="none"></path></g><g transform="translate(945 1003) rotate(0 295 36)"><text x="0" y="14.977" font-family="Excalifont, Xiaolai, Segoe UI Emoji" font-size="17px" fill="#14532d" text-anchor="start" style="white-space: pre;" direction="ltr" dominant-baseline="alphabetic">Deploy executes only after a what-if or terraform plan preview.</text><text x="0" y="36.227000000000004" font-family="Excalifont, Xiaolai, Segoe UI Emoji" font-size="17px" fill="#14532d" text-anchor="start" style="white-space: pre;" direction="ltr" dominant-baseline="alphabetic">The user verifies the live deployment before the workflow continues.</text><text x="0" y="57.477000000000004" font-family="Excalifont, Xiaolai, Segoe UI Emoji" font-size="17px" fill="#14532d" text-anchor="start" style="white-space: pre;" direction="ltr" dominant-baseline="alphabetic">Output: 06-deployment-summary.md.</text></g><g stroke-linecap="round" transform="translate(910 1169) rotate(0 330 65)"><path d="M32 0 C164.41 -2.06, 292.95 -1.58, 628 0 C652.09 -2.71, 660.43 14.22, 660 32 C657.85 53.71, 656.45 77.43, 660 98 C657.73 122.64, 651.56 127.97, 628 130 C428.29 128.27, 229.16 127.79, 32 130 C7.68 127.22, 0.36 121.72, 0 98 C-1.8 79.53, 1.52 69.1, 0 32 C2.2 9.91, 9.94 -0.48, 32 0" stroke="none" stroke-width="0" fill="#c3fae8"></path><path d="M32 0 C151.55 -0.1, 270.28 -0.02, 628 0 M32 0 C194.19 0.63, 356.13 1.12, 628 0 M628 0 C648.04 0.53, 660.88 12.29, 660 32 M628 0 C649.53 0.56, 658.67 12.4, 660 32 M660 32 C661.23 44.61, 660.79 61.94, 660 98 M660 32 C659.02 57.39, 659.77 82.83, 660 98 M660 98 C660.6 117.73, 649.82 128.28, 628 130 M660 98 C658.31 119.4, 650.27 130.81, 628 130 M628 130 C499.88 132.27, 371.33 132.28, 32 130 M628 130 C499.29 132.49, 370.65 132.23, 32 130 M32 130 C8.78 129.71, -0.18 119.86, 0 98 M32 130 C12.5 129.98, 2.16 119.43, 0 98 M0 98 C-1.2 78.79, 0.78 58.61, 0 32 M0 98 C-0.66 80.39, 0.56 60.84, 0 32 M0 32 C0.44 12.66, 9.12 -1.31, 32 0 M0 32 C-0.62 8.6, 11.68 2.27, 32 0" stroke="#22c55e" stroke-width="2" fill="none"></path></g><g transform="translate(945 1193) rotate(0 295 36)"><text x="0" y="14.977" font-family="Excalifont, Xiaolai, Segoe UI Emoji" font-size="17px" fill="#14532d" text-anchor="start" style="white-space: pre;" direction="ltr" dominant-baseline="alphabetic">As-Built reads prior artifacts and deployed resource state.</text><text x="0" y="36.227000000000004" font-family="Excalifont, Xiaolai, Segoe UI Emoji" font-size="17px" fill="#14532d" text-anchor="start" style="white-space: pre;" direction="ltr" dominant-baseline="alphabetic">It produces the 07-*.md documentation suite for workload handoff.</text><text x="0" y="57.477000000000004" font-family="Excalifont, Xiaolai, Segoe UI Emoji" font-size="17px" fill="#14532d" text-anchor="start" style="white-space: pre;" direction="ltr" dominant-baseline="alphabetic">The workflow closes with human-governed documentation delivery.</text></g><g stroke-linecap="round"><g transform="translate(760 259) rotate(0 75 0)"><path d="M0 0 C30 0, 60 0, 150 0 M0 0 C40.8 0, 81.6 0, 150 0" stroke="#0f172a" stroke-width="2" fill="none"></path></g><g transform="translate(760 259) rotate(0 75 0)"><path d="M126.51 8.55 C131.21 6.84, 135.9 5.13, 150 0 M126.51 8.55 C132.9 6.22, 139.29 3.9, 150 0" stroke="#0f172a" stroke-width="2" fill="none"></path></g><g transform="translate(760 259) rotate(0 75 0)"><path d="M126.51 -8.55 C131.21 -6.84, 135.9 -5.13, 150 0 M126.51 -8.55 C132.9 -6.22, 139.29 -3.9, 150 0" stroke="#0f172a" stroke-width="2" fill="none"></path></g></g><mask></mask><g stroke-linecap="round"><g transform="translate(760 444) rotate(0 75 0)"><path d="M0 0 C30 0, 60 0, 150 0 M0 0 C40.8 0, 81.6 0, 150 0" stroke="#0f172a" stroke-width="2" fill="none"></path></g><g transform="translate(760 444) rotate(0 75 0)"><path d="M126.51 8.55 C131.21 6.84, 135.9 5.13, 150 0 M126.51 8.55 C132.9 6.22, 139.29 3.9, 150 0" stroke="#0f172a" stroke-width="2" fill="none"></path></g><g transform="translate(760 444) rotate(0 75 0)"><path d="M126.51 -8.55 C131.21 -6.84, 135.9 -5.13, 150 0 M126.51 -8.55 C132.9 -6.22, 139.29 -3.9, 150 0" stroke="#0f172a" stroke-width="2" fill="none"></path></g></g><mask></mask><g stroke-linecap="round"><g transform="translate(760 629) rotate(0 75 0)"><path d="M0 0 C30 0, 60 0, 150 0 M0 0 C40.8 0, 81.6 0, 150 0" stroke="#0f172a" stroke-width="2" fill="none"></path></g><g transform="translate(760 629) rotate(0 75 0)"><path d="M126.51 8.55 C131.21 6.84, 135.9 5.13, 150 0 M126.51 8.55 C132.9 6.22, 139.29 3.9, 150 0" stroke="#0f172a" stroke-width="2" fill="none"></path></g><g transform="translate(760 629) rotate(0 75 0)"><path d="M126.51 -8.55 C131.21 -6.84, 135.9 -5.13, 150 0 M126.51 -8.55 C132.9 -6.22, 139.29 -3.9, 150 0" stroke="#0f172a" stroke-width="2" fill="none"></path></g></g><mask></mask><g stroke-linecap="round"><g transform="translate(760 814) rotate(0 75 0)"><path d="M0 0 C30 0, 60 0, 150 0 M0 0 C40.8 0, 81.6 0, 150 0" stroke="#0f172a" stroke-width="2" fill="none"></path></g><g transform="translate(760 814) rotate(0 75 0)"><path d="M126.51 8.55 C131.21 6.84, 135.9 5.13, 150 0 M126.51 8.55 C132.9 6.22, 139.29 3.9, 150 0" stroke="#0f172a" stroke-width="2" fill="none"></path></g><g transform="translate(760 814) rotate(0 75 0)"><path d="M126.51 -8.55 C131.21 -6.84, 135.9 -5.13, 150 0 M126.51 -8.55 C132.9 -6.22, 139.29 -3.9, 150 0" stroke="#0f172a" stroke-width="2" fill="none"></path></g></g><mask></mask><g stroke-linecap="round"><g transform="translate(760 1044) rotate(0 75 0)"><path d="M0 0 C30 0, 60 0, 150 0 M0 0 C40.8 0, 81.6 0, 150 0" stroke="#0f172a" stroke-width="2" fill="none"></path></g><g transform="translate(760 1044) rotate(0 75 0)"><path d="M126.51 8.55 C131.21 6.84, 135.9 5.13, 150 0 M126.51 8.55 C132.9 6.22, 139.29 3.9, 150 0" stroke="#0f172a" stroke-width="2" fill="none"></path></g><g transform="translate(760 1044) rotate(0 75 0)"><path d="M126.51 -8.55 C131.21 -6.84, 135.9 -5.13, 150 0 M126.51 -8.55 C132.9 -6.22, 139.29 -3.9, 150 0" stroke="#0f172a" stroke-width="2" fill="none"></path></g></g><mask></mask><g stroke-linecap="round"><g transform="translate(760 1234) rotate(0 75 0)"><path d="M0 0 C30 0, 60 0, 150 0 M0 0 C40.8 0, 81.6 0, 150 0" stroke="#0f172a" stroke-width="2" fill="none"></path></g><g transform="translate(760 1234) rotate(0 75 0)"><path d="M126.51 8.55 C131.21 6.84, 135.9 5.13, 150 0 M126.51 8.55 C132.9 6.22, 139.29 3.9, 150 0" stroke="#0f172a" stroke-width="2" fill="none"></path></g><g transform="translate(760 1234) rotate(0 75 0)"><path d="M126.51 -8.55 C131.21 -6.84, 135.9 -5.13, 150 0 M126.51 -8.55 C132.9 -6.22, 139.29 -3.9, 150 0" stroke="#0f172a" stroke-width="2" fill="none"></path></g></g><mask></mask><g stroke-linecap="round" transform="translate(340 1300) rotate(0 615 27)"><path d="M13.5 0 C279.45 -4.35, 541.51 -3.86, 1216.5 0 C1228.26 -2.71, 1230.43 8.06, 1230 13.5 C1228.18 22.52, 1226.78 33.55, 1230 40.5 C1227.73 52.81, 1227.72 51.97, 1216.5 54 C813.19 50.25, 410.46 49.77, 13.5 54 C1.52 51.22, 0.36 51.89, 0 40.5 C-2.05 31.52, 1.27 30.58, 0 13.5 C2.2 3.74, 3.77 -0.48, 13.5 0" stroke="none" stroke-width="0" fill="#ffffff"></path><path d="M13.5 0 C254.45 -0.59, 494.58 -0.51, 1216.5 0 M13.5 0 C340.79 1.59, 667.83 2.08, 1216.5 0 M1216.5 0 C1224.2 0.53, 1230.88 6.13, 1230 13.5 M1216.5 0 C1225.7 0.56, 1228.67 6.23, 1230 13.5 M1230 13.5 C1231.41 17.62, 1230.97 26.48, 1230 40.5 M1230 13.5 C1229.34 23.7, 1230.09 33.94, 1230 40.5 M1230 40.5 C1230.6 47.9, 1225.98 52.28, 1216.5 54 M1230 40.5 C1228.31 49.56, 1226.44 54.81, 1216.5 54 M1216.5 54 C957.47 58.67, 698 58.68, 13.5 54 M1216.5 54 C956.79 58.72, 697.14 58.46, 13.5 54 M13.5 54 C2.61 53.71, -0.18 50.03, 0 40.5 M13.5 54 C6.33 53.98, 2.16 49.6, 0 40.5 M0 40.5 C-0.92 32.47, 1.06 23.48, 0 13.5 M0 40.5 C-0.63 33.67, 0.59 24.9, 0 13.5 M0 13.5 C0.44 6.5, 2.95 -1.31, 13.5 0 M0 13.5 C-0.62 2.43, 5.51 2.27, 13.5 0" stroke="#0f172a" stroke-width="2" fill="none"></path></g><g transform="translate(650 1317) rotate(0 305 10)"><text x="305" y="15.858" font-family="Excalifont, Xiaolai, Segoe UI Emoji" font-size="18px" fill="#0f172a" text-anchor="middle" style="white-space: pre;" direction="ltr" dominant-baseline="alphabetic">AI orchestrated. Human governed. Azure ready.</text></g></svg>